<svg width="100" height="100" viewBox="0 0 100 100" fill="none" xmlns="http://www.w3.org/2000/svg">
<path d="M58.3333 83.3332V74.9998H70.8333C72.0137 74.9998 73.0041 74.5998 73.8041 73.7998C74.6041 72.9998 75.0027 72.0108 74.9999 70.8332V62.4998C74.9999 59.8608 75.7637 57.465 77.2915 55.3122C78.8193 53.1596 80.8333 51.6318 83.3333 50.729V49.2706C80.8333 48.3678 78.8193 46.84 77.2915 44.6872C75.7637 42.5346 74.9999 40.1386 74.9999 37.4998V29.1664C74.9999 27.9858 74.5999 26.997 73.7999 26.1998C72.9999 25.4026 72.0111 25.0026 70.8333 24.9998H58.3333V16.6665H70.8333C74.3055 16.6665 77.2569 17.8818 79.6873 20.3122C82.1179 22.7428 83.3333 25.6942 83.3333 29.1664V37.4998C83.3333 38.6804 83.7333 39.6706 84.5333 40.4706C85.3333 41.2706 86.3221 41.6692 87.4999 41.6664H91.6665V58.3332H87.4999C86.3193 58.3332 85.3291 58.7332 84.5291 59.5332C83.7291 60.3332 83.3305 61.322 83.3333 62.4998V70.8332C83.3333 74.3054 82.1179 77.2568 79.6873 79.6872C77.2569 82.1178 74.3055 83.3332 70.8333 83.3332H58.3333ZM29.1665 83.3332C25.6943 83.3332 22.7429 82.1178 20.3123 79.6872C17.8819 77.2568 16.6666 74.3054 16.6666 70.8332V62.4998C16.6666 61.3192 16.2666 60.329 15.4666 59.529C14.6666 58.729 13.6777 58.3304 12.4999 58.3332H8.33325V41.6664H12.4999C13.6805 41.6664 14.6708 41.2664 15.4708 40.4664C16.2708 39.6664 16.6694 38.6776 16.6666 37.4998V29.1664C16.6666 25.6942 17.8819 22.7428 20.3123 20.3122C22.7429 17.8818 25.6943 16.6665 29.1665 16.6665H41.6665V24.9998H29.1665C27.9861 24.9998 26.9957 25.3998 26.1957 26.1998C25.3957 26.9998 24.9971 27.9886 24.9999 29.1664V37.4998C24.9999 40.1386 24.2361 42.5346 22.7083 44.6872C21.1805 46.84 19.1666 48.3678 16.6666 49.2706V50.729C19.1666 51.6318 21.1805 53.1596 22.7083 55.3122C24.2361 57.465 24.9999 59.8608 24.9999 62.4998V70.8332C24.9999 72.0136 25.3999 73.004 26.1999 73.804C26.9999 74.604 27.9887 75.0026 29.1665 74.9998H41.6665V83.3332H29.1665Z" fill="#CCCCCC"/>
<path d="M53.2611 48.4596C54.7649 48.5182 56.0931 48.9186 57.2455 49.6608C58.3879 50.403 59.2815 51.4332 59.9261 52.7516C60.5707 54.0602 60.8929 55.6032 60.8929 57.3804C60.8929 59.3044 60.4729 60.9498 59.6331 62.317C58.7835 63.6842 57.5725 64.7292 56.0003 65.4518C54.4281 66.1646 52.5531 66.521 50.3753 66.521H49.5111C47.3235 66.521 45.4437 66.1452 43.8713 65.3932C42.2991 64.6412 41.0881 63.5914 40.2385 62.2438C39.3889 60.8864 38.9641 59.2946 38.9641 57.4684C38.9641 55.5738 39.3059 53.982 39.9895 52.693C40.6731 51.3942 41.6057 50.3932 42.7875 49.69C43.9691 48.9772 45.3021 48.5572 46.7865 48.4302V53.9088C45.6731 53.9284 44.8431 54.1968 44.2961 54.7144C43.7493 55.232 43.4759 56.15 43.4759 57.4684C43.4759 58.2594 43.6663 58.9136 44.0471 59.4312C44.4183 59.939 45.0433 60.32 45.9221 60.5738C46.7913 60.818 47.9779 60.94 49.4817 60.94H50.3753C51.8889 60.94 53.0853 60.8326 53.9641 60.6178C54.8333 60.3932 55.4535 60.022 55.8245 59.5044C56.1957 58.9772 56.3811 58.2692 56.3811 57.3804C56.3811 56.648 56.2737 56.028 56.0589 55.5202C55.8441 55.0124 55.5071 54.6266 55.0481 54.3628C54.5891 54.0894 53.9935 53.9478 53.2611 53.938V48.4596Z" fill="#CCCCCC"/>
<path d="M39.3999 36.3407L43.8237 36.3701V41.0429C43.8237 41.9707 44.0385 42.7519 44.4683 43.3867C44.8979 44.0213 45.5473 44.5047 46.4165 44.8369C47.2857 45.1689 48.3793 45.3349 49.6977 45.3349H50.4449C51.7535 45.3349 52.8375 45.1689 53.6967 44.8369C54.5659 44.5145 55.2153 44.0263 55.6451 43.3719C56.0747 42.7275 56.2895 41.9217 56.2895 40.9549V36.2529H60.7281V40.9549C60.7281 42.9081 60.2885 44.6317 59.4097 46.1259C58.5307 47.6297 57.3149 48.8065 55.7623 49.6561C54.2193 50.5057 52.4371 50.9305 50.4155 50.9305H49.6977C47.6861 50.9305 45.9039 50.5057 44.3511 49.6561C42.7983 48.8065 41.5825 47.6395 40.7037 46.1551C39.8345 44.6709 39.3999 42.9667 39.3999 41.0429V36.3407ZM39.3999 39.5195V34.0117H60.7281V39.5195H39.3999Z" fill="#CCCCCC"/>
</svg>
