<svg width="30" height="30" viewBox="0 0 30 30" fill="none" xmlns="http://www.w3.org/2000/svg">
<g clip-path="url(#clip0_245_1289)">
<path fill-rule="evenodd" clip-rule="evenodd" d="M11.2501 11.0887L15.1126 7.22625V5.89875L11.0907 1.875L9.76508 3.20063L9.8457 3.28125L10.3145 3.75L12.1895 5.625H6.56445C5.32125 5.625 4.12897 6.11886 3.24989 6.99794C2.37081 7.87701 1.87695 9.0693 1.87695 10.3125C1.87695 11.5557 2.37081 12.748 3.24989 13.6271C4.12897 14.5061 5.32125 15 6.56445 15H7.50008V13.125H6.56258C6.19324 13.125 5.82751 13.0523 5.48628 12.9109C5.14505 12.7696 4.83501 12.5624 4.57384 12.3012C4.31268 12.0401 4.10551 11.73 3.96417 11.3888C3.82283 11.0476 3.75008 10.6818 3.75008 10.3125C3.75008 9.94316 3.82283 9.57743 3.96417 9.2362C4.10551 8.89497 4.31268 8.58493 4.57384 8.32376C4.83501 8.0626 5.14505 7.85543 5.48628 7.71409C5.82751 7.57275 6.19324 7.5 6.56258 7.5H12.1876L9.7632 9.92438L11.0888 11.25L11.2501 11.0887ZM20.6251 3.75H15.6151L13.7401 1.875H22.5001L23.8313 2.41875L29.4563 8.04375L30.0001 9.375V26.25L28.1251 28.125H11.2501L9.37508 26.25V12.1875L11.2501 13.7756V26.25H28.1251V11.25H20.6251V3.75ZM22.5001 3.75V9.375H28.1251L22.5001 3.75Z" fill="#CCCCCC"/>
</g>
<defs>
<clipPath id="clip0_245_1289">
<rect width="30" height="30" fill="white"/>
</clipPath>
</defs>
</svg>
