<svg width="30" height="30" viewBox="0 0 30 30" fill="none" xmlns="http://www.w3.org/2000/svg">
<path d="M6.25 3.75H23.75C24.413 3.75 25.0489 4.01339 25.5178 4.48223C25.9866 4.95107 26.25 5.58696 26.25 6.25V23.75C26.25 24.413 25.9866 25.0489 25.5178 25.5178C25.0489 25.9866 24.413 26.25 23.75 26.25H18.2C17.8 26.1625 17.7875 25.4 17.7875 25.1375L17.8 22.05C17.8 21 17.4375 20.3125 17.0375 19.9625C19.55 19.6875 22.175 18.75 22.175 14.4125C22.175 13.1875 21.7375 12.175 21.025 11.3875C21.1375 11.1125 21.525 9.9625 20.9125 8.4125C20.9125 8.4125 19.9625 8.125 17.8125 9.575C16.9125 9.325 15.9625 9.2 15 9.1875C14.05 9.2 13.075 9.325 12.1875 9.575C10.0375 8.125 9.0875 8.4125 9.0875 8.4125C8.475 9.9625 8.8625 11.1125 8.975 11.3875C8.2625 12.175 7.825 13.1875 7.825 14.4125C7.825 18.75 10.45 19.6875 12.95 20C12.625 20.25 12.3375 20.75 12.2375 21.475C11.5875 21.7625 9.9625 22.2625 8.9625 20.5375C8.9625 20.5375 8.3625 19.4625 7.2375 19.375C7.2375 19.375 6.1375 19.375 7.1625 20.0625C7.1625 20.0625 7.9 20.4125 8.4125 21.7125C8.4125 21.7125 9.0625 23.9 12.2 23.225L12.2125 25.1375C12.2125 25.4 12.1875 26.1625 11.7875 26.25H6.25C5.58696 26.25 4.95107 25.9866 4.48223 25.5178C4.01339 25.0489 3.75 24.413 3.75 23.75V6.25C3.75 5.58696 4.01339 4.95107 4.48223 4.48223C4.95107 4.01339 5.58696 3.75 6.25 3.75Z" fill="#CCCCCC"/>
</svg>
