<svg width="30" height="30" viewBox="0 0 30 30" fill="none" xmlns="http://www.w3.org/2000/svg">
<path d="M27.6024 17.6026C26.8453 20.0741 25.328 22.2438 23.2665 23.803C21.4565 25.1653 19.3026 25.9961 17.0467 26.2023C14.7907 26.4084 12.5219 25.9818 10.495 24.9701C8.46807 23.9585 6.76321 22.4019 5.57178 20.4752C4.38035 18.5484 3.74951 16.3278 3.75006 14.0624C3.74191 11.4183 4.60149 8.84445 6.19693 6.73585C7.75616 4.67428 9.92587 3.157 12.3973 2.39991C12.5602 2.34976 12.7337 2.34495 12.8991 2.38602C13.0645 2.42709 13.2156 2.51247 13.3361 2.63299C13.4566 2.7535 13.542 2.90459 13.5831 3.07001C13.6242 3.23542 13.6194 3.4089 13.5692 3.57179C13.0288 5.3594 12.9835 7.26014 13.4381 9.07147C13.8927 10.8828 14.8302 12.5369 16.1508 13.8574C17.4713 15.1779 19.1254 16.1155 20.9367 16.5701C22.748 17.0247 24.6488 16.9794 26.4364 16.439C26.5993 16.3888 26.7728 16.384 26.9382 16.4251C27.1036 16.4661 27.2547 16.5515 27.3752 16.672C27.4957 16.7926 27.5811 16.9437 27.6222 17.1091C27.6632 17.2745 27.6584 17.448 27.6083 17.6108L27.6024 17.6026Z" fill="#CCCCCC"/>
</svg>
